<svg xmlns="http://www.w3.org/2000/svg" width="720" height="720" viewBox="0 0 720 720">
  <rect width="720" height="720" rx="48" fill="#ffffff"/>
  <rect x="42" y="42" width="636" height="636" rx="40" fill="#f8fbfa" stroke="#0f9f68" stroke-width="10"/>
  <g fill="#0f9f68">
    <rect x="94" y="94" width="160" height="160" rx="18"/>
    <rect x="466" y="94" width="160" height="160" rx="18"/>
    <rect x="94" y="466" width="160" height="160" rx="18"/>
  </g>
  <g fill="#fff">
    <rect x="126" y="126" width="96" height="96" rx="12"/>
    <rect x="498" y="126" width="96" height="96" rx="12"/>
    <rect x="126" y="498" width="96" height="96" rx="12"/>
  </g>
  <g fill="#0b1320">
    <rect x="302" y="110" width="40" height="40" rx="8"/><rect x="366" y="110" width="84" height="40" rx="8"/>
    <rect x="302" y="174" width="104" height="40" rx="8"/><rect x="430" y="174" width="40" height="40" rx="8"/>
    <rect x="302" y="238" width="40" height="40" rx="8"/><rect x="390" y="238" width="88" height="40" rx="8"/>
    <rect x="286" y="318" width="72" height="72" rx="12"/><rect x="382" y="318" width="40" height="40" rx="8"/><rect x="470" y="318" width="84" height="40" rx="8"/>
    <rect x="286" y="414" width="40" height="40" rx="8"/><rect x="350" y="414" width="124" height="40" rx="8"/><rect x="518" y="414" width="40" height="40" rx="8"/>
    <rect x="302" y="502" width="40" height="104" rx="8"/><rect x="366" y="502" width="72" height="40" rx="8"/><rect x="462" y="502" width="128" height="40" rx="8"/>
    <rect x="366" y="566" width="40" height="40" rx="8"/><rect x="430" y="566" width="40" height="40" rx="8"/><rect x="534" y="566" width="56" height="40" rx="8"/>
  </g>
  <text x="360" y="686" text-anchor="middle" font-family="Arial, sans-serif" font-size="30" font-weight="700" fill="#0f9f68">GANTI FILE INI DENGAN QRIS ADMIN</text>
</svg>
